<svg xmlns="http://www.w3.org/2000/svg" width="1500" height="500" viewBox="0 0 1500 500">
  <defs>
    <filter id="grain">
      <feTurbulence type="fractalNoise" baseFrequency="0.65" numOctaves="4" stitchTiles="stitch"/>
      <feColorMatrix type="saturate" values="0"/>
      <feComponentTransfer>
        <feFuncA type="linear" slope="0.06"/>
      </feComponentTransfer>
      <feBlend in="SourceGraphic" mode="multiply"/>
    </filter>
    <radialGradient id="glow1" cx="70%" cy="50%" r="40%">
      <stop offset="0%" stop-color="#c8ff00" stop-opacity="0.06"/>
      <stop offset="100%" stop-color="#c8ff00" stop-opacity="0"/>
    </radialGradient>
    <radialGradient id="glow2" cx="30%" cy="60%" r="30%">
      <stop offset="0%" stop-color="#c8ff00" stop-opacity="0.03"/>
      <stop offset="100%" stop-color="#c8ff00" stop-opacity="0"/>
    </radialGradient>
    <pattern id="grid" width="60" height="60" patternUnits="userSpaceOnUse">
      <path d="M 60 0 L 0 0 0 60" fill="none" stroke="#c8ff00" stroke-width="0.3" opacity="0.06"/>
    </pattern>
    
    <style>
      @import url('https://fonts.googleapis.com/css2?family=DM+Serif+Display:ital@0;1');
      @import url('https://fonts.googleapis.com/css2?family=JetBrains+Mono:wght@300;400;700');
    </style>
  </defs>
  
  <!-- Background -->
  <rect width="1500" height="500" fill="#0a0a0a"/>
  
  <!-- Grid -->
  <rect width="1500" height="500" fill="url(#grid)"/>
  
  <!-- Glows -->
  <rect width="1500" height="500" fill="url(#glow1)"/>
  <rect width="1500" height="500" fill="url(#glow2)"/>
  
  <!-- Top border line -->
  <line x1="0" y1="1" x2="1500" y2="1" stroke="#222" stroke-width="1"/>
  <!-- Bottom border line -->
  <line x1="0" y1="499" x2="1500" y2="499" stroke="#222" stroke-width="1"/>
  
  <!-- Right accent line -->
  <line x1="1420" y1="0" x2="1420" y2="500" stroke="#c8ff00" stroke-width="1" opacity="0.15"/>
  
  <!-- Large faint infinity symbol — left/center area (behind PFP, decorative) -->
  <g transform="translate(250, 250) scale(0.6)" opacity="0.08">
    <path d="M 0,-80 C 120,-80 180,-80 180,0 C 180,80 120,80 0,80 C -120,80 -180,80 -180,0 C -180,-80 -120,-80 0,-80 Z" 
          fill="none" stroke="#c8ff00" stroke-width="28" stroke-linecap="round"/>
  </g>
  
  <!-- Left side — protocol info (these will be partially behind PFP, that's fine) -->
  <text x="120" y="175" 
        font-family="'JetBrains Mono', monospace" 
        font-size="10" 
        fill="#555550" 
        letter-spacing="3">BUILT ON</text>
  <text x="120" y="195" 
        font-family="'JetBrains Mono', monospace" 
        font-size="13" 
        fill="#888880" 
        letter-spacing="2">SOLANA</text>
  
  <line x1="120" y1="215" x2="220" y2="215" stroke="#333" stroke-width="1"/>
  
  <text x="120" y="245" 
        font-family="'JetBrains Mono', monospace" 
        font-size="10" 
        fill="#555550" 
        letter-spacing="3">POWERED BY</text>
  <text x="120" y="265" 
        font-family="'JetBrains Mono', monospace" 
        font-size="13" 
        fill="#888880" 
        letter-spacing="2">CLAUDE · GEMINI</text>
  
  <line x1="120" y1="285" x2="220" y2="285" stroke="#333" stroke-width="1"/>
  
  <text x="120" y="315" 
        font-family="'JetBrains Mono', monospace" 
        font-size="10" 
        fill="#555550" 
        letter-spacing="3">FUNDED BY</text>
  <text x="120" y="335" 
        font-family="'JetBrains Mono', monospace" 
        font-size="13" 
        fill="#c8ff00" 
        letter-spacing="2">TRADING VOLUME</text>

  <!-- INFINITE text — main headline, RIGHT ALIGNED -->
  <text x="1380" y="295" 
        font-family="'DM Serif Display', Georgia, serif" 
        font-size="148" 
        font-style="italic"
        fill="#c8ff00" 
        letter-spacing="-2"
        text-anchor="end">INFINITE</text>
  
  <!-- Tagline — right aligned under headline -->
  <text x="1380" y="345" 
        font-family="'JetBrains Mono', monospace" 
        font-size="14" 
        fill="#888880" 
        letter-spacing="4"
        text-anchor="end">OWN THE TOKEN. USE THE AI. FOREVER.</text>
  
  <!-- Small infinity accent — right of headline -->
  <g transform="translate(1420, 250) scale(0.25)">
    <path d="M 0,-80 C 120,-80 180,-80 180,0 C 180,80 120,80 0,80 C -120,80 -180,80 -180,0 C -180,-80 -120,-80 0,-80 Z" 
          fill="none" stroke="#c8ff00" stroke-width="28" stroke-linecap="round" opacity="0.3"/>
  </g>
  
  <!-- Corner marks -->
  <line x1="30" y1="30" x2="70" y2="30" stroke="#333" stroke-width="1"/>
  <line x1="30" y1="30" x2="30" y2="70" stroke="#333" stroke-width="1"/>
  
  <line x1="1470" y1="30" x2="1430" y2="30" stroke="#333" stroke-width="1"/>
  <line x1="1470" y1="30" x2="1470" y2="70" stroke="#333" stroke-width="1"/>
  
  <line x1="30" y1="470" x2="70" y2="470" stroke="#333" stroke-width="1"/>
  <line x1="30" y1="470" x2="30" y2="430" stroke="#333" stroke-width="1"/>
  
  <line x1="1470" y1="470" x2="1430" y2="470" stroke="#333" stroke-width="1"/>
  <line x1="1470" y1="470" x2="1470" y2="430" stroke="#333" stroke-width="1"/>
  
  <!-- Grain -->
  <rect width="1500" height="500" filter="url(#grain)" opacity="0.4"/>
</svg>
