<svg xmlns="http://www.w3.org/2000/svg" viewBox="0 0 1024 1024" role="img" aria-labelledby="title">
  <title id="title">Meterflow mark</title>
  <g fill="#ffffff">
    <path d="M238 206c82 28 145 61 188 111 36 42 55 96 66 168 7 44 14 95 31 153-48-64-98-126-149-183-31-34-52-60-75-105-18-35-40-70-61-144Z"/>
    <path d="M786 206c-82 28-145 61-188 111-36 42-55 96-66 168-7 44-14 95-31 153 48-64 98-126 149-183 31-34 52-60 75-105 18-35 40-70 61-144Z"/>
    <path d="M322 318c62 43 114 95 157 157 14 20 25 35 33 35s19-15 33-35c43-62 95-114 157-157-34 72-61 142-99 202-22 35-50 64-72 97-17 25-23 109-19 260-40-157-48-235-19-294-40-48-95-117-171-265Z"/>
    <path d="M156 301c79 56 131 116 155 180 23 62 24 135 4 218-17 71-59 125-113 166 61-92 69-174 64-250-8-116-41-212-110-314Z"/>
    <path d="M868 301c-79 56-131 116-155 180-23 62-24 135-4 218 17 71 59 125 113 166-61-92-69-174-64-250 8-116 41-212 110-314Z"/>
  </g>
</svg>
